<svg xmlns="http://www.w3.org/2000/svg" version="1.1" xmlns:xlink="http://www.w3.org/1999/xlink" xmlns:svgjs="http://svgjs.dev/svgjs" width="2000" height="368" viewBox="0 0 2000 368"><g transform="matrix(1,0,0,1,-1.2121212121212466,-2.023973577346794)"><svg viewBox="0 0 396 73" data-background-color="#ffffff" preserveAspectRatio="xMidYMid meet" height="368" width="2000" xmlns="http://www.w3.org/2000/svg" xmlns:xlink="http://www.w3.org/1999/xlink"><g id="tight-bounds" transform="matrix(1,0,0,1,0.2400000000000091,0.4014947585497737)"><svg viewBox="0 0 395.52 72.19701048290044" height="72.19701048290044" width="395.52"><g><svg viewBox="0 0 395.52 72.19701048290044" height="72.19701048290044" width="395.52"><g><svg viewBox="0 0 475.70780726748785 86.83424744156655" height="72.19701048290044" width="395.52"><g transform="matrix(1,0,0,1,80.18780726748788,0)"><svg viewBox="0 0 395.52 86.83424744156655" height="86.83424744156655" width="395.52"><g id="textblocktransform"><svg viewBox="0 0 395.52 86.83424744156655" height="86.83424744156655" width="395.52" id="textblock"><g><svg viewBox="0 0 395.52 56.80435561182961" height="56.80435561182961" width="395.52"><g transform="matrix(1,0,0,1,0,0)"><svg width="395.52" viewBox="1.9 -38.28 269.93 38.77" height="56.80435561182961" data-palette-color="#1a5319"><path d="M19.48-2.69L19.48-2.69Q27.17-2.69 29.2-9.77L29.2-9.77 32.71-9.77Q32.71-7.86 31.69-6.02 30.66-4.17 28.81-2.73L28.81-2.73Q24.71 0.49 18.26 0.49 11.82 0.49 7.23-3.81L7.23-3.81Q1.9-8.76 1.9-18.31L1.9-18.31Q1.9-25.93 6.01-31.15L6.01-31.15Q8.91-34.89 13.75-36.35L13.75-36.35Q16.24-37.11 19.21-37.11L19.21-37.11Q25.1-37.11 28.88-34.41 32.67-31.71 32.67-27.64L32.67-27.64Q32.67-24.58 30.27-23.54L30.27-23.54Q29.57-23.22 28.74-23.22L28.74-23.22Q26.17-23.22 25.29-25.39L25.29-25.39Q25.02-26.07 25.02-27.01 25.02-27.95 25.56-28.87 26.1-29.79 26.98-30.27L26.98-30.27Q25-34.06 19.9-34.06 14.79-34.06 11.6-30.19 8.4-26.32 8.4-18.57 8.4-10.82 11.65-6.75 14.89-2.69 19.48-2.69ZM53.54-21.58L53.54-21.58Q49.53-21.58 47.04-19.09L47.04-19.09 47.04-5.25Q47.04-3.74 47.53-3.34L47.53-3.34Q48.39-2.69 50.75-2.69L50.75-2.69 50.75 0 38.35 0 38.35-2.69Q40.45-2.69 40.99-3.11 41.53-3.54 41.65-4.03 41.77-4.52 41.77-5.25L41.77-5.25 41.77-31.74Q41.77-33.5 41.46-34.03 41.16-34.57 39.79-34.57L39.79-34.57 38.3-34.57 38.3-37.26Q40.6-37.26 41.9-37.61 43.21-37.96 43.76-38.12 44.31-38.28 44.94-38.28L44.94-38.28Q46.24-38.28 46.64-37.54 47.04-36.79 47.04-35.16L47.04-35.16 47.04-21.97Q49.56-24.17 53.1-24.98L53.1-24.98Q54.25-25.24 55.34-25.24L55.34-25.24Q63.25-25.24 63.25-14.75L63.25-14.75 63.25-5.3Q63.25-3.69 63.72-3.19 64.18-2.69 66.26-2.69L66.26-2.69 66.26 0 54.71 0 54.71-2.69Q56.93-2.69 57.38-3.14 57.83-3.59 57.91-4.08 57.98-4.57 57.98-5.3L57.98-5.3 57.98-14.43Q57.98-17.82 57.35-19.09L57.35-19.09Q56.1-21.58 53.54-21.58ZM90.99-16.8L90.99-5.83Q90.99-2.93 92.13-2.93L92.13-2.93Q93.23-2.93 93.75-3.67 94.26-4.42 94.26-6.37L94.26-6.37 96.82-6.37Q96.85-6.05 96.85-5.37L96.85-5.37Q96.85-3.17 95.75-1.56L95.75-1.56Q94.4 0.49 91.47 0.49L91.47 0.49Q89.57 0.49 88.23-0.59 86.88-1.66 86.37-3.42L86.37-3.42Q82.83 0.49 77.41 0.49L77.41 0.49Q74.43 0.49 72.22-1.26 70.01-3 70.01-6.13L70.01-6.13Q70.01-11.55 78.02-14.14L78.02-14.14Q83.1-15.75 84.1-16.37 85.1-16.99 85.41-17.64 85.71-18.29 85.71-19.09L85.71-19.09Q85.71-20.53 84.3-21.5 82.88-22.46 80.61-22.46 78.34-22.46 76.61-21.24L76.61-21.24Q77.83-20.34 77.83-18.92 77.83-17.5 76.89-16.65 75.95-15.8 74.62-15.8 73.29-15.8 72.42-16.6 71.55-17.41 71.55-18.85L71.55-18.85Q71.55-21.7 74.43-23.47 77.31-25.24 81.44-25.24L81.44-25.24Q88.81-25.24 90.45-20.46L90.45-20.46Q90.99-18.87 90.99-16.8L90.99-16.8ZM80.22-11.91Q78.07-10.99 77-9.53 75.92-8.08 75.92-6.37 75.92-4.66 76.85-3.78 77.78-2.91 79.17-2.91L79.17-2.91Q82-2.91 83.86-4.9 85.71-6.88 85.71-10.45L85.71-10.45 85.71-14.21Q84.15-13.4 82.4-12.74 80.66-12.08 80.22-11.91L80.22-11.91ZM108.46 0.49L108.46 0.49Q100.77 0.49 100.77-8.06L100.77-8.06 100.77-20.26Q100.77-21.22 100.54-21.52 100.31-21.83 99.55-21.83L99.55-21.83 97.55-21.83 97.55-24.76 98.45-24.76Q100.31-24.76 101.18-25.93 102.04-27.1 102.12-29.79L102.12-29.79 102.14-31.96 106.05-31.96 106.05-24.76 113.54-24.76 113.54-21.83 106.05-21.83 106.05-8.13Q106.05-3.59 108.15-2.71L108.15-2.71Q108.73-2.47 109.32-2.47L109.32-2.47Q111.88-2.47 112.66-6.69L112.66-6.69 115.5-6.69Q115.25-1.68 111.32-0.05L111.32-0.05Q110.05 0.49 108.46 0.49ZM128.9 0.49L128.9 0.49Q121.21 0.49 121.21-8.06L121.21-8.06 121.21-20.26Q121.21-21.22 120.97-21.52 120.74-21.83 119.99-21.83L119.99-21.83 117.98-21.83 117.98-24.76 118.89-24.76Q120.74-24.76 121.61-25.93 122.48-27.1 122.55-29.79L122.55-29.79 122.57-31.96 126.48-31.96 126.48-24.76 133.97-24.76 133.97-21.83 126.48-21.83 126.48-8.13Q126.48-3.59 128.58-2.71L128.58-2.71Q129.16-2.47 129.75-2.47L129.75-2.47Q132.31-2.47 133.1-6.69L133.1-6.69 135.93-6.69Q135.68-1.68 131.75-0.05L131.75-0.05Q130.48 0.49 128.9 0.49ZM162.12-11.25L162.12-11.25 145.18-11.25Q145.18-7.06 147.17-4.76 149.16-2.47 152.09-2.47L152.09-2.47Q156.02-2.47 157.73-5.71L157.73-5.71 161.36-5.74Q160.8-3.13 158.15-1.32 155.51 0.49 151.01 0.49 146.52 0.49 143.25-2.29L143.25-2.29Q139.34-5.64 139.34-11.72 139.34-17.8 142.46-21.52 145.57-25.24 151.38-25.24L151.38-25.24Q159.02-25.24 161.27-19.09L161.27-19.09Q162.17-16.63 162.17-14.43 162.17-12.23 162.12-11.25ZM156.48-14.92L156.48-14.92Q156.48-22.39 151.4-22.39L151.4-22.39Q148.55-22.39 146.95-20.17 145.35-17.94 145.2-14.01L145.2-14.01 156.46-14.01Q156.48-14.48 156.48-14.92ZM166.39 0L166.39-2.69Q168.49-2.69 169.03-3.11 169.57-3.54 169.67-4.03 169.78-4.52 169.78-5.25L169.78-5.25 169.78-18.7Q169.78-20.46 169.48-21 169.17-21.53 167.83-21.53L167.83-21.53 166.34-21.53 166.34-24.22Q168.66-24.22 169.94-24.57 171.23-24.93 171.77-25.09 172.32-25.24 172.96-25.24L172.96-25.24Q174.2-25.24 174.63-24.51 175.06-23.78 175.06-22.12L175.06-22.12 175.06-21.63Q177.16-24.1 179.82-24.95L179.82-24.95Q180.77-25.24 181.72-25.24L181.72-25.24Q183.55-25.24 184.57-24.19 185.58-23.14 185.58-21.61 185.58-20.07 184.6-19.09 183.63-18.12 182.24-18.12L182.24-18.12Q180.87-18.12 179.98-19.09 179.09-20.07 179.18-21.53L179.18-21.53Q178.18-21.39 177.05-20.62 175.91-19.85 175.06-18.53L175.06-18.53 175.06-5.47Q175.06-4.54 175.22-3.99 175.38-3.44 176.07-3.06 176.77-2.69 180.26-2.69L180.26-2.69 180.26 0 166.39 0ZM209.7-19.29L209.7-19.29Q217.8-17.16 217.8-10.28L217.8-10.28Q217.8-7.42 216.94-5.82 216.07-4.22 215-3.25L215-3.25Q211.48 0 202.89 0L202.89 0 188.07 0 188.07-2.69Q190.63-2.69 191.27-3.14 191.9-3.59 192.02-4.1 192.15-4.61 192.15-5.35L192.15-5.35 192.15-31.27Q192.15-32.86 191.61-33.25L191.61-33.25Q190.63-33.94 188.04-33.94L188.04-33.94 188.04-36.62 201.64-36.62Q211.53-36.62 214.61-31.93L214.61-31.93Q215.83-30.08 215.83-27.61L215.83-27.61Q215.83-21.8 209.7-19.29ZM197.64-20.07L200.96-20.07Q207.8-20.21 209.28-24.07L209.28-24.07Q209.77-25.34 209.77-26.9L209.77-26.9Q209.77-30.2 207.83-32.07 205.89-33.94 201.18-33.94L201.18-33.94 197.64-33.94 197.64-20.07ZM197.64-2.69L202.42-2.69Q209.7-2.69 211.26-7.42L211.26-7.42Q211.73-8.81 211.73-10.45L211.73-10.45Q211.73-13.82 209.17-15.8 206.62-17.77 202.18-17.87L202.18-17.87Q201.67-17.87 201.13-17.87 200.59-17.87 200.03-17.87L200.03-17.87 197.64-17.87 197.64-2.69ZM244.54-11.25L244.54-11.25 227.59-11.25Q227.59-7.06 229.58-4.76 231.57-2.47 234.5-2.47L234.5-2.47Q238.43-2.47 240.14-5.71L240.14-5.71 243.78-5.74Q243.22-3.13 240.57-1.32 237.92 0.49 233.43 0.49 228.94 0.49 225.66-2.29L225.66-2.29Q221.76-5.64 221.76-11.72 221.76-17.8 224.87-21.52 227.98-25.24 233.79-25.24L233.79-25.24Q241.44-25.24 243.68-19.09L243.68-19.09Q244.58-16.63 244.58-14.43 244.58-12.23 244.54-11.25ZM238.9-14.92L238.9-14.92Q238.9-22.39 233.82-22.39L233.82-22.39Q230.96-22.39 229.36-20.17 227.76-17.94 227.62-14.01L227.62-14.01 238.87-14.01Q238.9-14.48 238.9-14.92ZM271.78-11.25L271.78-11.25 254.84-11.25Q254.84-7.06 256.83-4.76 258.82-2.47 261.75-2.47L261.75-2.47Q265.68-2.47 267.38-5.71L267.38-5.71 271.02-5.74Q270.46-3.13 267.81-1.32 265.16 0.49 260.67 0.49 256.18 0.49 252.91-2.29L252.91-2.29Q249-5.64 249-11.72 249-17.8 252.11-21.52 255.23-25.24 261.04-25.24L261.04-25.24Q268.68-25.24 270.92-19.09L270.92-19.09Q271.83-16.63 271.83-14.43 271.83-12.23 271.78-11.25ZM266.14-14.92L266.14-14.92Q266.14-22.39 261.06-22.39L261.06-22.39Q258.21-22.39 256.61-20.17 255.01-17.94 254.86-14.01L254.86-14.01 266.12-14.01Q266.14-14.48 266.14-14.92Z" opacity="1" transform="matrix(1,0,0,1,0,0)" fill="#ffffff" class="wordmark-text-0" data-fill-palette-color="primary" id="text-0"></path></svg></g></svg></g><g transform="matrix(1,0,0,1,0,70.21450066724789)"><svg viewBox="0 0 232.209792 16.619746774318653" height="16.619746774318653" width="232.209792"><g transform="matrix(1,0,0,1,0,0)"><svg width="232.209792" viewBox="3.03 -43.43 692.36 49.56" height="16.619746774318653" data-palette-color="#1a5319"><path d="M11.47 0.51L11.47 0.51Q8.35 0.51 6.49-1.01 4.64-2.54 3.83-5.49 3.03-8.45 3.03-12.67L3.03-12.67 3.03-30.57Q3.03-33.4 3.39-35.75 3.76-38.11 4.7-39.83 5.64-41.55 7.32-42.49 9.01-43.43 11.65-43.43L11.65-43.43Q14.16-43.43 15.75-42.54 17.33-41.65 18.21-40 19.09-38.35 19.42-36.1 19.75-33.84 19.75-31.1L19.75-31.1 19.75-26.34 14.79-26.34 14.79-31.13Q14.79-35.13 14.22-37.12 13.65-39.11 11.65-39.11L11.65-39.11Q9.52-39.11 8.8-37.07 8.08-35.03 8.08-31.15L8.08-31.15 8.08-12.55Q8.08-9.42 8.35-7.48 8.62-5.54 9.36-4.66 10.11-3.78 11.5-3.78L11.5-3.78Q13.53-3.78 14.16-5.83 14.79-7.89 14.79-12.57L14.79-12.57 14.79-17.33 19.8-17.33 19.8-12.62Q19.8-8.33 19.06-5.4 18.31-2.47 16.5-0.98 14.7 0.51 11.47 0.51ZM30.95 0L25.95 0 25.95-43.43 30.95-43.43 30.95-32.74Q31.44-34.45 33.02-35.77 34.59-37.08 36.79-37.08L36.79-37.08Q39.55-37.08 41.11-35.13 42.67-33.18 42.67-29.2L42.67-29.2 42.67 0 37.67 0 37.67-28.78Q37.67-31.03 36.85-31.9 36.03-32.76 34.67-32.76L34.67-32.76Q33.66-32.76 32.81-32.29 31.96-31.81 31.46-30.8 30.95-29.79 30.95-28.17L30.95-28.17 30.95 0ZM55.1 0.32L55.1 0.32Q51.78 0.32 50.31-2.26 48.85-4.83 48.82-9.4L48.82-9.4 48.82-12.96Q48.82-15.38 49.65-16.98 50.48-18.58 52-19.65 53.51-20.73 55.56-21.59 57.61-22.46 60.05-23.44L60.05-23.44 60.05-26.27Q60.05-28.61 59.91-30.07 59.76-31.52 59.16-32.2 58.56-32.89 57.25-32.89L57.25-32.89Q55.95-32.89 55.31-32.2 54.66-31.52 54.46-30.05 54.27-28.59 54.27-26.25L54.27-26.25 54.27-24.98 49.29-24.98 49.29-26.03Q49.29-28.37 49.58-30.38 49.87-32.4 50.7-33.89 51.53-35.38 53.13-36.22 54.73-37.06 57.34-37.06L57.34-37.06Q59.83-37.06 61.36-36.27 62.89-35.47 63.7-33.94 64.52-32.4 64.81-30.14 65.11-27.88 65.11-24.93L65.11-24.93 65.11 0 60.08 0 60.08-3.17Q59.86-2.44 59.22-1.62 58.59-0.81 57.56-0.24 56.54 0.32 55.1 0.32ZM56.51-3.74L56.51-3.74Q57.83-3.74 58.78-4.58 59.74-5.42 60.05-6.25L60.05-6.25 60.05-20.19Q58.17-19.36 56.97-18.69 55.76-18.02 55.09-17.29 54.41-16.55 54.15-15.53 53.88-14.5 53.88-12.94L53.88-12.94 53.88-9.55Q53.88-6.45 54.41-5.09 54.95-3.74 56.51-3.74ZM81.49 0.22L78.04 0.22Q75.7 0.22 74.5-0.34 73.31-0.9 72.89-2.15 72.48-3.39 72.48-5.44L72.48-5.44 72.48-32.62 69.13-32.62 69.13-36.33 72.48-36.33 72.48-42.97 77.48-42.97 77.48-36.33 81.44-36.33 81.44-32.62 77.48-32.62 77.48-5.88Q77.48-4.96 77.73-4.5 77.97-4.05 78.83-3.91 79.68-3.76 81.49-3.76L81.49-3.76 81.49 0.22ZM96.03 0.22L92.59 0.22Q90.25 0.22 89.05-0.34 87.86-0.9 87.44-2.15 87.03-3.39 87.03-5.44L87.03-5.44 87.03-32.62 83.68-32.62 83.68-36.33 87.03-36.33 87.03-42.97 92.03-42.97 92.03-36.33 95.99-36.33 95.99-32.62 92.03-32.62 92.03-5.88Q92.03-4.96 92.28-4.5 92.52-4.05 93.37-3.91 94.23-3.76 96.03-3.76L96.03-3.76 96.03 0.22ZM108.26 0.44L108.26 0.44Q105.63 0.44 104.03-0.48 102.43-1.39 101.6-3.08 100.77-4.76 100.49-7.12 100.21-9.47 100.21-12.33L100.21-12.33 100.21-25.27Q100.21-27.86 100.57-30.02 100.94-32.18 101.84-33.75 102.75-35.33 104.36-36.19 105.97-37.06 108.46-37.06L108.46-37.06Q110.97-37.06 112.51-36.18 114.05-35.3 114.84-33.7 115.64-32.1 115.91-29.9 116.17-27.69 116.17-25.05L116.17-25.05 116.17-18.14 105.24-18.14 105.24-10.84Q105.24-7.37 105.71-5.55 106.19-3.74 108.31-3.74L108.31-3.74Q109.7-3.74 110.3-4.6 110.9-5.47 111.03-7.04 111.17-8.62 111.17-10.77L111.17-10.77 111.17-13.72 116.08-13.72 116.08-12.16Q116.08-9.3 115.84-6.98 115.61-4.66 114.86-3 114.1-1.34 112.52-0.45 110.95 0.44 108.26 0.44ZM105.21-26.03L105.21-21.53 111.17-21.53 111.17-26.2Q111.17-28.39 111.02-29.9 110.88-31.4 110.31-32.17 109.75-32.93 108.46-32.93L108.46-32.93Q107.02-32.93 106.32-32.06 105.63-31.18 105.42-29.63 105.21-28.08 105.21-26.03L105.21-26.03ZM127.3 0L122.28 0 122.28-36.62 127.3-36.62 127.3-32.54Q127.94-34.67 129.51-35.86 131.09-37.06 133.53-37.06L133.53-37.06Q133.58-37.06 133.59-36.41 133.6-35.77 133.6-34.94 133.6-34.11 133.6-33.46 133.6-32.81 133.6-32.81L133.6-32.81Q132.43-32.81 131.26-32.53 130.09-32.25 129.06-31.58 128.04-30.91 127.3-29.76L127.3-29.76 127.3 0ZM146.27 0L137.87 0 137.87-42.97 145.64-42.97Q148.93-42.97 150.74-41.99 152.55-41.02 153.28-38.89 154.01-36.77 154.04-33.3L154.04-33.3 154.04-32.37Q154.04-28.78 153.36-26.53 152.69-24.27 150.79-23.27L150.79-23.27Q152.33-22.66 153.18-21.14 154.04-19.63 154.39-17.5 154.74-15.38 154.74-12.94L154.74-12.94 154.74-12.04Q154.69-7.84 153.9-5.18 153.11-2.51 151.28-1.26 149.45 0 146.27 0L146.27 0ZM142.93-21.14L142.93-4.08 146.03-4.08Q147.47-4.08 148.25-4.79 149.03-5.49 149.35-7.26 149.67-9.03 149.67-12.18L149.67-12.18 149.67-13.67Q149.67-17.65 149.03-19.4 148.4-21.14 146.3-21.14L146.3-21.14 142.93-21.14ZM142.93-38.84L142.93-25.02 145.78-25.02Q146.81-25.02 147.44-25.26 148.08-25.49 148.43-26.2 148.79-26.9 148.91-28.3 149.03-29.69 149.03-32.03L149.03-32.03 149.03-33.23Q149.03-35.67 148.66-36.87 148.3-38.06 147.5-38.45 146.71-38.84 145.42-38.84L145.42-38.84 142.93-38.84ZM167.83 0.44L167.83 0.44Q165.19 0.44 163.59-0.48 161.99-1.39 161.16-3.08 160.33-4.76 160.05-7.12 159.77-9.47 159.77-12.33L159.77-12.33 159.77-25.27Q159.77-27.86 160.14-30.02 160.5-32.18 161.41-33.75 162.31-35.33 163.92-36.19 165.53-37.06 168.02-37.06L168.02-37.06Q170.54-37.06 172.07-36.18 173.61-35.3 174.41-33.7 175.2-32.1 175.47-29.9 175.74-27.69 175.74-25.05L175.74-25.05 175.74-18.14 164.8-18.14 164.8-10.84Q164.8-7.37 165.28-5.55 165.75-3.74 167.88-3.74L167.88-3.74Q169.27-3.74 169.87-4.6 170.46-5.47 170.6-7.04 170.73-8.62 170.73-10.77L170.73-10.77 170.73-13.72 175.64-13.72 175.64-12.16Q175.64-9.3 175.41-6.98 175.18-4.66 174.42-3 173.66-1.34 172.09-0.45 170.51 0.44 167.83 0.44ZM164.77-26.03L164.77-21.53 170.73-21.53 170.73-26.2Q170.73-28.39 170.59-29.9 170.44-31.4 169.88-32.17 169.32-32.93 168.02-32.93L168.02-32.93Q166.58-32.93 165.89-32.06 165.19-31.18 164.98-29.63 164.77-28.08 164.77-26.03L164.77-26.03ZM189.33 0.44L189.33 0.44Q186.7 0.44 185.1-0.48 183.5-1.39 182.67-3.08 181.84-4.76 181.56-7.12 181.28-9.47 181.28-12.33L181.28-12.33 181.28-25.27Q181.28-27.86 181.64-30.02 182.01-32.18 182.91-33.75 183.82-35.33 185.43-36.19 187.04-37.06 189.53-37.06L189.53-37.06Q192.04-37.06 193.58-36.18 195.12-35.3 195.91-33.7 196.71-32.1 196.97-29.9 197.24-27.69 197.24-25.05L197.24-25.05 197.24-18.14 186.31-18.14 186.31-10.84Q186.31-7.37 186.78-5.55 187.26-3.74 189.38-3.74L189.38-3.74Q190.77-3.74 191.37-4.6 191.97-5.47 192.1-7.04 192.24-8.62 192.24-10.77L192.24-10.77 192.24-13.72 197.15-13.72 197.15-12.16Q197.15-9.3 196.91-6.98 196.68-4.66 195.92-3 195.17-1.34 193.59-0.45 192.02 0.44 189.33 0.44ZM186.28-26.03L186.28-21.53 192.24-21.53 192.24-26.2Q192.24-28.39 192.09-29.9 191.95-31.4 191.38-32.17 190.82-32.93 189.53-32.93L189.53-32.93Q188.09-32.93 187.39-32.06 186.7-31.18 186.49-29.63 186.28-28.08 186.28-26.03L186.28-26.03ZM208.47-25.56L202.98-25.56 202.98-31.91 208.47-31.91 208.47-25.56ZM208.47-6.59L202.98-6.59 202.98-12.94 208.47-12.94 208.47-6.59ZM235.61 0L230.73 0 225.07-42.97 229.73-42.97 233.39-10.03 238.28-42.97 242.4-42.97 247.41-10.03 250.51-42.97 255.15-42.97 250.07 0 245.06 0 240.47-31.71 235.61 0ZM265.01 0L260 0 260-43.43 265.01-43.43 265.01-32.74Q265.49-34.45 267.07-35.77 268.64-37.08 270.84-37.08L270.84-37.08Q273.6-37.08 275.16-35.13 276.73-33.18 276.73-29.2L276.73-29.2 276.73 0 271.72 0 271.72-28.78Q271.72-31.03 270.9-31.9 270.08-32.76 268.72-32.76L268.72-32.76Q267.72-32.76 266.86-32.29 266.01-31.81 265.51-30.8 265.01-29.79 265.01-28.17L265.01-28.17 265.01 0ZM291.2 0.44L291.2 0.44Q288.56 0.44 286.96-0.48 285.37-1.39 284.54-3.08 283.71-4.76 283.42-7.12 283.14-9.47 283.14-12.33L283.14-12.33 283.14-25.27Q283.14-27.86 283.51-30.02 283.88-32.18 284.78-33.75 285.68-35.33 287.29-36.19 288.91-37.06 291.4-37.06L291.4-37.06Q293.91-37.06 295.45-36.18 296.99-35.3 297.78-33.7 298.57-32.1 298.84-29.9 299.11-27.69 299.11-25.05L299.11-25.05 299.11-18.14 288.17-18.14 288.17-10.84Q288.17-7.37 288.65-5.55 289.13-3.74 291.25-3.74L291.25-3.74Q292.64-3.74 293.24-4.6 293.84-5.47 293.97-7.04 294.11-8.62 294.11-10.77L294.11-10.77 294.11-13.72 299.01-13.72 299.01-12.16Q299.01-9.3 298.78-6.98 298.55-4.66 297.79-3 297.04-1.34 295.46-0.45 293.89 0.44 291.2 0.44ZM288.15-26.03L288.15-21.53 294.11-21.53 294.11-26.2Q294.11-28.39 293.96-29.9 293.81-31.4 293.25-32.17 292.69-32.93 291.4-32.93L291.4-32.93Q289.96-32.93 289.26-32.06 288.56-31.18 288.36-29.63 288.15-28.08 288.15-26.03L288.15-26.03ZM310.24 0L305.21 0 305.21-36.62 310.24-36.62 310.24-32.54Q310.88-34.67 312.45-35.86 314.03-37.06 316.47-37.06L316.47-37.06Q316.52-37.06 316.53-36.41 316.54-35.77 316.54-34.94 316.54-34.11 316.54-33.46 316.54-32.81 316.54-32.81L316.54-32.81Q315.37-32.81 314.2-32.53 313.02-32.25 312-31.58 310.97-30.91 310.24-29.76L310.24-29.76 310.24 0ZM328.38 0.44L328.38 0.44Q325.74 0.44 324.14-0.48 322.54-1.39 321.71-3.08 320.88-4.76 320.6-7.12 320.32-9.47 320.32-12.33L320.32-12.33 320.32-25.27Q320.32-27.86 320.69-30.02 321.05-32.18 321.96-33.75 322.86-35.33 324.47-36.19 326.08-37.06 328.57-37.06L328.57-37.06Q331.09-37.06 332.63-36.18 334.16-35.3 334.96-33.7 335.75-32.1 336.02-29.9 336.29-27.69 336.29-25.05L336.29-25.05 336.29-18.14 325.35-18.14 325.35-10.84Q325.35-7.37 325.83-5.55 326.3-3.74 328.43-3.74L328.43-3.74Q329.82-3.74 330.42-4.6 331.01-5.47 331.15-7.04 331.28-8.62 331.28-10.77L331.28-10.77 331.28-13.72 336.19-13.72 336.19-12.16Q336.19-9.3 335.96-6.98 335.73-4.66 334.97-3 334.21-1.34 332.64-0.45 331.06 0.44 328.38 0.44ZM325.33-26.03L325.33-21.53 331.28-21.53 331.28-26.2Q331.28-28.39 331.14-29.9 330.99-31.4 330.43-32.17 329.87-32.93 328.57-32.93L328.57-32.93Q327.13-32.93 326.44-32.06 325.74-31.18 325.53-29.63 325.33-28.08 325.33-26.03L325.33-26.03ZM367.31 0L354.37 0 354.37-42.97 367.22-42.97 367.22-38.77 359.43-38.77 359.43-24.07 366.8-24.07 366.8-19.87 359.43-19.87 359.43-4.2 367.31-4.2 367.31 0ZM381.67 0L375.78 0 370.48-36.62 375.03-36.62 377.88-15.84 378.88-7.18 379.05-7.18 379.91-15.87 382.45-36.62 387.01-36.62 381.67 0ZM399.27 0.44L399.27 0.44Q396.63 0.44 395.03-0.48 393.43-1.39 392.6-3.08 391.77-4.76 391.49-7.12 391.21-9.47 391.21-12.33L391.21-12.33 391.21-25.27Q391.21-27.86 391.58-30.02 391.94-32.18 392.85-33.75 393.75-35.33 395.36-36.19 396.97-37.06 399.46-37.06L399.46-37.06Q401.98-37.06 403.51-36.18 405.05-35.3 405.85-33.7 406.64-32.1 406.91-29.9 407.18-27.69 407.18-25.05L407.18-25.05 407.18-18.14 396.24-18.14 396.24-10.84Q396.24-7.37 396.72-5.55 397.19-3.74 399.32-3.74L399.32-3.74Q400.71-3.74 401.3-4.6 401.9-5.47 402.04-7.04 402.17-8.62 402.17-10.77L402.17-10.77 402.17-13.72 407.08-13.72 407.08-12.16Q407.08-9.3 406.85-6.98 406.62-4.66 405.86-3 405.1-1.34 403.53-0.45 401.95 0.44 399.27 0.44ZM396.21-26.03L396.21-21.53 402.17-21.53 402.17-26.2Q402.17-28.39 402.03-29.9 401.88-31.4 401.32-32.17 400.76-32.93 399.46-32.93L399.46-32.93Q398.02-32.93 397.33-32.06 396.63-31.18 396.42-29.63 396.21-28.08 396.21-26.03L396.21-26.03ZM418.31 0L413.28 0 413.28-36.62 418.31-36.62 418.31-32.54Q418.94-34.67 420.52-35.86 422.09-37.06 424.53-37.06L424.53-37.06Q424.58-37.06 424.59-36.41 424.61-35.77 424.61-34.94 424.61-34.11 424.61-33.46 424.61-32.81 424.61-32.81L424.61-32.81Q423.43-32.81 422.26-32.53 421.09-32.25 420.06-31.58 419.04-30.91 418.31-29.76L418.31-29.76 418.31 0ZM432.81 6.13L427.9 6.13 427.9 2.34 429.63 2.34Q430.71 2.34 431.5 2.23 432.29 2.12 432.46 1.76L432.46 1.76Q432.76 1.37 432.7 0.52 432.64-0.32 432.49-1.29L432.49-1.29 426.51-36.62 431.37-36.62 434-17.58 435.08-7.67 435.52-7.67 436.47-17.58 438.86-36.62 443.7-36.62 437.62 0.71Q437.32 2.69 436.88 3.88 436.44 5.08 435.53 5.6 434.61 6.13 432.81 6.13L432.81 6.13ZM468.52 0L460.12 0 460.12-42.97 467.88-42.97Q471.18-42.97 472.99-41.99 474.79-41.02 475.53-38.89 476.26-36.77 476.28-33.3L476.28-33.3 476.28-32.37Q476.28-28.78 475.61-26.53 474.94-24.27 473.04-23.27L473.04-23.27Q474.57-22.66 475.43-21.14 476.28-19.63 476.64-17.5 476.99-15.38 476.99-12.94L476.99-12.94 476.99-12.04Q476.94-7.84 476.15-5.18 475.36-2.51 473.52-1.26 471.69 0 468.52 0L468.52 0ZM465.17-21.14L465.17-4.08 468.27-4.08Q469.72-4.08 470.5-4.79 471.28-5.49 471.6-7.26 471.91-9.03 471.91-12.18L471.91-12.18 471.91-13.67Q471.91-17.65 471.28-19.4 470.64-21.14 468.54-21.14L468.54-21.14 465.17-21.14ZM465.17-38.84L465.17-25.02 468.03-25.02Q469.06-25.02 469.69-25.26 470.33-25.49 470.68-26.2 471.03-26.9 471.16-28.3 471.28-29.69 471.28-32.03L471.28-32.03 471.28-33.23Q471.28-35.67 470.91-36.87 470.55-38.06 469.75-38.45 468.96-38.84 467.66-38.84L467.66-38.84 465.17-38.84ZM488.41 0.49L488.41 0.49Q486.78 0.49 485.39-0.32 484-1.12 483.14-2.92 482.29-4.71 482.29-7.62L482.29-7.62 482.29-36.62 487.29-36.62 487.29-8.18Q487.29-6.05 488.05-4.96 488.8-3.86 490.44-3.86L490.44-3.86Q492.25-3.86 493.11-5.11 493.98-6.37 493.98-8.3L493.98-8.3 493.98-36.62 499.01-36.62 499.01 0 493.98 0 493.98-3.74Q493.44-2.03 492.05-0.77 490.66 0.49 488.41 0.49ZM517.05 0L504.23 0 504.23-3.74 512.29-32.3 504.84-32.3 504.84-36.62 517.46-36.62 517.46-33.18 509.38-4.27 517.05-4.27 517.05 0ZM533.48 0L520.66 0 520.66-3.74 528.72-32.3 521.27-32.3 521.27-36.62 533.89-36.62 533.89-33.18 525.81-4.27 533.48-4.27 533.48 0ZM555.2 0L550.9 0 550.9-42.97 556.71-42.97 563.36-8.62 569.68-42.97 575.51-42.97 575.51 0 571.19 0 571.19-16.26 571.61-32.32 565.14 0 561.52 0 554.79-32.32 555.2-16.26 555.2 0ZM588.06 0.32L588.06 0.32Q584.74 0.32 583.27-2.26 581.81-4.83 581.79-9.4L581.79-9.4 581.79-12.96Q581.79-15.38 582.62-16.98 583.45-18.58 584.96-19.65 586.47-20.73 588.52-21.59 590.57-22.46 593.02-23.44L593.02-23.44 593.02-26.27Q593.02-28.61 592.87-30.07 592.72-31.52 592.12-32.2 591.53-32.89 590.21-32.89L590.21-32.89Q588.91-32.89 588.27-32.2 587.62-31.52 587.42-30.05 587.23-28.59 587.23-26.25L587.23-26.25 587.23-24.98 582.25-24.98 582.25-26.03Q582.25-28.37 582.54-30.38 582.84-32.4 583.67-33.89 584.5-35.38 586.09-36.22 587.69-37.06 590.31-37.06L590.31-37.06Q592.8-37.06 594.32-36.27 595.85-35.47 596.67-33.94 597.48-32.4 597.78-30.14 598.07-27.88 598.07-24.93L598.07-24.93 598.07 0 593.04 0 593.04-3.17Q592.82-2.44 592.19-1.62 591.55-0.81 590.53-0.24 589.5 0.32 588.06 0.32ZM589.48-3.74L589.48-3.74Q590.79-3.74 591.75-4.58 592.7-5.42 593.02-6.25L593.02-6.25 593.02-20.19Q591.14-19.36 589.93-18.69 588.72-18.02 588.05-17.29 587.38-16.55 587.11-15.53 586.84-14.5 586.84-12.94L586.84-12.94 586.84-9.55Q586.84-6.45 587.38-5.09 587.91-3.74 589.48-3.74ZM614.45 0.22L611.01 0.22Q608.66 0.22 607.47-0.34 606.27-0.9 605.86-2.15 605.44-3.39 605.44-5.44L605.44-5.44 605.44-32.62 602.1-32.62 602.1-36.33 605.44-36.33 605.44-42.97 610.44-42.97 610.44-36.33 614.4-36.33 614.4-32.62 610.44-32.62 610.44-5.88Q610.44-4.96 610.69-4.5 610.93-4.05 611.79-3.91 612.64-3.76 614.45-3.76L614.45-3.76 614.45 0.22ZM629 0.22L625.55 0.22Q623.21 0.22 622.01-0.34 620.82-0.9 620.4-2.15 619.99-3.39 619.99-5.44L619.99-5.44 619.99-32.62 616.64-32.62 616.64-36.33 619.99-36.33 619.99-42.97 624.99-42.97 624.99-36.33 628.95-36.33 628.95-32.62 624.99-32.62 624.99-5.88Q624.99-4.96 625.24-4.5 625.48-4.05 626.34-3.91 627.19-3.76 629-3.76L629-3.76 629 0.22ZM641.23 0.44L641.23 0.44Q638.59 0.44 636.99-0.48 635.39-1.39 634.56-3.08 633.73-4.76 633.45-7.12 633.17-9.47 633.17-12.33L633.17-12.33 633.17-25.27Q633.17-27.86 633.54-30.02 633.9-32.18 634.81-33.75 635.71-35.33 637.32-36.19 638.93-37.06 641.42-37.06L641.42-37.06Q643.94-37.06 645.47-36.18 647.01-35.3 647.81-33.7 648.6-32.1 648.87-29.9 649.14-27.69 649.14-25.05L649.14-25.05 649.14-18.14 638.2-18.14 638.2-10.84Q638.2-7.37 638.67-5.55 639.15-3.74 641.27-3.74L641.27-3.74Q642.67-3.74 643.26-4.6 643.86-5.47 644-7.04 644.13-8.62 644.13-10.77L644.13-10.77 644.13-13.72 649.04-13.72 649.04-12.16Q649.04-9.3 648.81-6.98 648.57-4.66 647.82-3 647.06-1.34 645.49-0.45 643.91 0.44 641.23 0.44ZM638.17-26.03L638.17-21.53 644.13-21.53 644.13-26.2Q644.13-28.39 643.98-29.9 643.84-31.4 643.28-32.17 642.72-32.93 641.42-32.93L641.42-32.93Q639.98-32.93 639.29-32.06 638.59-31.18 638.38-29.63 638.17-28.08 638.17-26.03L638.17-26.03ZM660.27 0L655.24 0 655.24-36.62 660.27-36.62 660.27-32.54Q660.9-34.67 662.48-35.86 664.05-37.06 666.49-37.06L666.49-37.06Q666.54-37.06 666.55-36.41 666.57-35.77 666.57-34.94 666.57-34.11 666.57-33.46 666.57-32.81 666.57-32.81L666.57-32.81Q665.39-32.81 664.22-32.53 663.05-32.25 662.02-31.58 661-30.91 660.27-29.76L660.27-29.76 660.27 0ZM677.72 0.49L677.72 0.49Q673.81 0.49 671.79-1.97 669.76-4.42 669.76-10.11L669.76-10.11 669.76-12.87 674.62-12.87 674.62-10.13Q674.62-7.06 675.29-5.42 675.96-3.78 677.5-3.78L677.5-3.78Q679.04-3.78 679.76-4.79 680.48-5.79 680.48-8.37L680.48-8.37Q680.48-9.67 680.09-10.95 679.7-12.23 678.89-13.49 678.09-14.75 676.82-15.94L676.82-15.94 674.23-18.41Q671.91-20.63 670.69-23.13 669.47-25.63 669.47-28.44L669.47-28.44Q669.47-32.89 671.57-34.97 673.67-37.06 677.35-37.06L677.35-37.06Q679.82-37.06 681.5-35.99 683.19-34.91 684.04-32.42 684.9-29.93 684.9-25.63L684.9-25.63 684.9-23.88 680.14-23.88 680.14-26.42Q680.14-29.49 679.54-31.13 678.94-32.76 677.4-32.76L677.4-32.76Q675.91-32.76 675.17-31.9 674.42-31.03 674.35-28.74L674.35-28.74Q674.33-27.56 674.66-26.37 674.99-25.17 675.74-24 676.5-22.83 677.7-21.7L677.7-21.7 680.33-19.24Q682.9-16.87 684.2-14.15 685.51-11.43 685.51-8.4L685.51-8.4Q685.51-4.25 683.62-1.88 681.72 0.49 677.72 0.49ZM695.39 0L691.12 0 691.12-4.83 695.39-4.83 695.39 0Z" opacity="1" transform="matrix(1,0,0,1,0,0)" fill="#ffffff" class="slogan-text-1" data-fill-palette-color="secondary" id="text-1"></path></svg></g></svg></g></svg></g></svg></g><g transform="matrix(1,0,0,1,0,13.415891229722032)"><svg viewBox="0 0 66.7776622120696 60.00246498212248" height="60.00246498212248" width="66.7776622120696"><g><svg xmlns="http://www.w3.org/2000/svg" xmlns:xlink="http://www.w3.org/1999/xlink" version="1.1" x="0" y="0" viewBox="1.6165235823033985 5.312084950420108 96.60707536238598 86.80541463173783" enable-background="new 0 0 100 100" xml:space="preserve" height="60.00246498212248" width="66.7776622120696" class="icon-icon-0" data-fill-palette-color="accent" id="icon-0"><g fill="#1a5319" data-fill-palette-color="accent"><g fill="#1a5319" data-fill-palette-color="accent"><path fill-rule="evenodd" clip-rule="evenodd" d="M37.094 26.532C45.776 26.414 48.953 20.791 50.294 13.332 50.028 12.223 48.58 12.296 49.057 10.445 49.739 9.843 50.208 9.569 51.326 9.826 52.364 11.028 51.624 12.971 51.326 14.363 49.692 21.986 45.533 28.867 35.238 27.357 36.686 30.028 38.04 32.336 38.126 36.019 38.275 42.45 34.898 48.116 30.907 52.106 26.947 56.066 21.513 59.487 14.82 59.325 7.382 59.145 1.779 54.059 1.62 46.125 1.504 40.382 4.31 35.018 7.188 31.688 11.616 26.564 21.694 19.891 30.907 24.263 31.804 24.689 33.134 26.034 34.207 26.119 36.265 26.283 39.633 23.761 41.013 21.994 43.591 18.693 43.756 13.384 42.457 8.794 41.956 8.03 40.593 8.418 40.394 7.144 40.262 6.298 41.291 4.79 42.663 5.494 43.558 5.953 44.532 12.086 44.519 14.363 44.484 20.581 40.839 24.587 37.094 26.532M18.944 32.307C17.794 37.303 24.959 36.982 24.719 32.926 24.61 31.079 23.541 29.974 21.213 30.451 19.771 30.746 19.083 31.698 18.944 32.307" fill="#ffffff" data-fill-palette-color="accent"></path><path fill-rule="evenodd" clip-rule="evenodd" d="M95.05 27.769C80.89 18.462 56.286 22.693 49.056 34.988 49.555 32.585 50.928 30.209 52.355 27.976 56.672 21.225 63.869 13.861 74.011 13.126 84.864 12.339 91.754 19.855 95.05 27.769" fill="#ffffff" data-fill-palette-color="accent"></path><path fill-rule="evenodd" clip-rule="evenodd" d="M87.418 71.494C87.304 61.105 82.136 54.042 76.074 47.981 69.561 41.468 59.323 35.844 48.231 38.906 47.361 38.941 48.234 38.589 48.231 38.287 55.234 32.573 63.563 26.385 75.456 26.325 87.659 26.262 97.248 33.676 98.144 45.3 98.962 55.93 93.342 66.142 87.418 71.494" fill="#ffffff" data-fill-palette-color="accent"></path><path fill-rule="evenodd" clip-rule="evenodd" d="M52.975 42.619C53.746 42.744 52.661 43.44 52.356 43.856 47.076 51.091 40.937 58.762 33.588 64.069 32.811 62.301 32.75 59.819 32.763 57.262 36.9 53.699 40.365 49.464 42.044 43.444 44.964 42.516 49.413 41.621 52.975 42.619" fill="#ffffff" data-fill-palette-color="accent"></path><path fill-rule="evenodd" clip-rule="evenodd" d="M60.193 44.682C62.973 45.821 65.35 47.362 67.618 49.013 59.902 59.996 51.191 69.986 39.981 77.476 38.71 75.928 37.474 74.345 36.681 72.32 46.61 65.198 55.675 57.213 60.193 44.682" fill="#ffffff" data-fill-palette-color="accent"></path><path fill-rule="evenodd" clip-rule="evenodd" d="M72.568 53.551C74.932 55.517 76.502 58.28 78.343 60.769 70.813 71.183 62.905 81.218 51.737 87.995 49.499 86.589 47.477 84.968 45.343 83.457 57.194 76.264 67.255 67.281 72.568 53.551" fill="#ffffff" data-fill-palette-color="accent"></path><path fill-rule="evenodd" clip-rule="evenodd" d="M81.644 69.638C82.794 71.634 82.875 75.62 82.469 78.507 81.408 79.643 80.126 80.404 78.962 81.394 75.74 84.134 72.618 87.373 70.712 91.707 67.991 92.281 64.375 92.227 61.637 91.707 69.601 85.645 76.797 78.816 81.644 69.638" fill="#ffffff" data-fill-palette-color="accent"></path><path fill-rule="evenodd" clip-rule="evenodd" d="M83.293 83.25C83.093 84.723 81.933 88.813 83.293 90.675 80.826 90.479 77.475 90.601 75.456 91.912 77.57 88.527 80.372 85.829 83.293 83.25" fill="#ffffff" data-fill-palette-color="accent"></path></g></g></svg></g></svg></g></svg></g></svg></g><defs></defs></svg><rect width="395.52" height="72.19701048290044" fill="none" stroke="none" visibility="hidden"></rect></g></svg></g></svg>